<svg xmlns="http://www.w3.org/2000/svg" viewBox="0 0 430.23 37.33"><defs><style>.cls-1{fill:#fcfcfc}.cls-2{fill:#005afb}</style></defs><g id="Layer_2" data-name="Layer 2"><g id="Layer_1-2" data-name="Layer 1"><g id="did_you_look"><g id="part_2"><path class="cls-1" d="M324.46 22.81a7.55 7.55 0 0 0 1 2.39 5.22 5.22 0 0 0 1.68 1.69 4.5 4.5 0 0 0 2.42.64 4.36 4.36 0 0 0 2.48-.66 8.36 8.36 0 0 0 1.65-1.44v-6h-9.51v.48a12.47 12.47 0 0 0 .28 2.9zM44.8 25.2a5.22 5.22 0 0 0 1.68 1.69 4.5 4.5 0 0 0 2.42.64 4.38 4.38 0 0 0 2.48-.66A8.36 8.36 0 0 0 53 25.43v-5.16h-9.52a12.06 12.06 0 0 0 .28 2.52 7.55 7.55 0 0 0 1.04 2.41zM178.51 25.58a5.22 5.22 0 0 0 1.6 1.88 4 4 0 0 0 2.4.69 4.17 4.17 0 0 0 3.71-2.27 11.83 11.83 0 0 0 1.36-6H177.3a18 18 0 0 0 .28 3 9.35 9.35 0 0 0 .93 2.7zM117.08 26.42a2.77 2.77 0 0 0 2.16 1 5 5 0 0 0 1.83-.31 5.69 5.69 0 0 0 1.35-.75 5.51 5.51 0 0 0 .89-.84 4.54 4.54 0 0 0 .59-.81v-4.65h-7.72v3.34a4.41 4.41 0 0 0 .9 3.02zM157.82 25.58a5.24 5.24 0 0 0 1.61 1.88 4 4 0 0 0 2.39.69 4.2 4.2 0 0 0 3.72-2.27 11.85 11.85 0 0 0 1.35-5.95h-10.27a17.31 17.31 0 0 0 .27 2.89 9.65 9.65 0 0 0 .93 2.76zM397.75 26.42a2.77 2.77 0 0 0 2.16 1 5 5 0 0 0 1.83-.31 5.69 5.69 0 0 0 1.35-.75 5.51 5.51 0 0 0 .89-.84 4.54 4.54 0 0 0 .59-.81v-5.47h-7.72v4.16a4.41 4.41 0 0 0 .9 3.02zM229.78 25.82a4.94 4.94 0 0 0 .9 1.15 4.87 4.87 0 0 0 1.27.85 4.12 4.12 0 0 0 1.74.33 4.21 4.21 0 0 0 3.69-2.22 11.17 11.17 0 0 0 1.41-6.05v-.15h-9.44v5a5.29 5.29 0 0 0 .43 1.09zM374.56 22.85a10 10 0 0 0 .93 2.73 5.24 5.24 0 0 0 1.61 1.88 4 4 0 0 0 2.39.69 4.2 4.2 0 0 0 3.72-2.27 12.14 12.14 0 0 0 1.37-6.26v-.32H374.3v.2a18.08 18.08 0 0 0 .26 3.35zM94.82 25.58a5.24 5.24 0 0 0 1.61 1.88 4 4 0 0 0 2.39.69 4.2 4.2 0 0 0 3.72-2.27 11.67 11.67 0 0 0 1.34-5.76H93.63a17.3 17.3 0 0 0 .26 2.7 10 10 0 0 0 .93 2.76zM8.62 26.82a5.69 5.69 0 0 0 3.05.65 9.62 9.62 0 0 0 4.16-.84 7.49 7.49 0 0 0 2.89-2.34 10.62 10.62 0 0 0 1.7-3.64v-.29H7.58v4.06a2.63 2.63 0 0 0 1.04 2.4z"/><path class="cls-2" d="M20.42 20.65a10.62 10.62 0 0 1-1.7 3.64 7.49 7.49 0 0 1-2.89 2.34 9.62 9.62 0 0 1-4.16.84 5.69 5.69 0 0 1-3.05-.65 2.63 2.63 0 0 1-1-2.36V20.4h-4v5.06a2.41 2.41 0 0 1-.26 1.15 1.6 1.6 0 0 1-.81.72 4.11 4.11 0 0 1-1.16.23 12.49 12.49 0 0 1-1.39.12V29h11a17.81 17.81 0 0 0 5.3-.79 14.33 14.33 0 0 0 4.7-2.37 12.05 12.05 0 0 0 3.32-4.08 9.71 9.71 0 0 0 .58-1.41h-4.43c-.02.1-.03.21-.05.3zM31.09 25.86a2.11 2.11 0 0 1-.26 1.1 1.34 1.34 0 0 1-.77.59 4.08 4.08 0 0 1-.8.15l-.89.07V29h8.92v-1.23a4.4 4.4 0 0 1-.87-.14 6.28 6.28 0 0 1-.8-.27 1.53 1.53 0 0 1-.8-.64 2.22 2.22 0 0 1-.25-1.09v-5.31h-3.48zM53 25.43a8.36 8.36 0 0 1-1.65 1.44 4.38 4.38 0 0 1-2.48.66 4.5 4.5 0 0 1-2.42-.64 5.22 5.22 0 0 1-1.65-1.69 7.55 7.55 0 0 1-1-2.39 12.06 12.06 0 0 1-.28-2.52h-3.89a11.67 11.67 0 0 0 .6 3.43A9.87 9.87 0 0 0 42 26.85a7.68 7.68 0 0 0 2.56 2 6.94 6.94 0 0 0 3 .7 6.67 6.67 0 0 0 2.94-.69 7.68 7.68 0 0 0 2.41-1.78h.15v1.72l.28.26 6.46-.41v-1.22c-.37 0-.78 0-1.23-.07a2.31 2.31 0 0 1-1-.28 2.12 2.12 0 0 1-.74-.78 2.25 2.25 0 0 1-.26-1.11v-4.93H53zM81.93 20.28a608.9 608.9 0 0 0-1.75 4.15c-.43-1.12-1-2.54-1.7-4.24h-3.73c.1.26.21.52.32.77q1.44 3.5 3.22 7.94a22.08 22.08 0 0 1-1.88 3.74 7.61 7.61 0 0 1-2.24 2.64c-.13-.22-.3-.48-.51-.8a4.49 4.49 0 0 0-.6-.77 2.91 2.91 0 0 0-.77-.57 2.18 2.18 0 0 0-1-.23 1.64 1.64 0 0 0-1.28.59 2.29 2.29 0 0 0-.55 1.5 2 2 0 0 0 .84 1.59 3.43 3.43 0 0 0 2.29.7 4.06 4.06 0 0 0 1.46-.27A5.38 5.38 0 0 0 75.61 36a12.24 12.24 0 0 0 1.81-2.32 34.46 34.46 0 0 0 2.11-4.09c.6-1.34 1.48-3.42 2.63-6.26.41-1 .85-2.07 1.3-3.15H82zM102.54 25.88a4.2 4.2 0 0 1-3.72 2.27 4 4 0 0 1-2.39-.69 5.24 5.24 0 0 1-1.61-1.88 10 10 0 0 1-.93-2.73 17.3 17.3 0 0 1-.26-2.7h-3.88a10.82 10.82 0 0 0 .69 3.74 9.17 9.17 0 0 0 2 3.07 8.59 8.59 0 0 0 6.19 2.6 9.57 9.57 0 0 0 3.82-.73 8.19 8.19 0 0 0 3-2.23 9.18 9.18 0 0 0 1.77-3.2 12.09 12.09 0 0 0 .57-3.3h-3.86a11.67 11.67 0 0 1-1.39 5.78zM123.9 24.72a4.54 4.54 0 0 1-.59.81 5.51 5.51 0 0 1-.89.84 5.69 5.69 0 0 1-1.35.75 5 5 0 0 1-1.83.31 2.77 2.77 0 0 1-2.16-1 4.41 4.41 0 0 1-.9-3v-3.35h-3.52v3.13a7.35 7.35 0 0 0 1.28 4.66 4.51 4.51 0 0 0 3.73 1.6 7.21 7.21 0 0 0 2.23-.27 8.71 8.71 0 0 0 1.63-.76 7.5 7.5 0 0 0 1.29-1c.37-.36.71-.69 1-1h.11v2.34l.28.26 6-.41v-1.2c-.37 0-.71 0-1-.08a1.94 1.94 0 0 1-.8-.27 2.32 2.32 0 0 1-.73-.77 2.07 2.07 0 0 1-.27-1.09v-5.17h-3.51zM144.2 25.86a2 2 0 0 1-.27 1.09 1.37 1.37 0 0 1-.78.6 4.63 4.63 0 0 1-.81.14l-.92.08V29h9v-1.23a5.68 5.68 0 0 1-.91-.13 4.68 4.68 0 0 1-.82-.28 1.62 1.62 0 0 1-.79-.65 2.16 2.16 0 0 1-.24-1.08V20h-3.46zM165.54 25.88a4.2 4.2 0 0 1-3.72 2.27 4 4 0 0 1-2.39-.69 5.24 5.24 0 0 1-1.61-1.88 9.65 9.65 0 0 1-.93-2.73 17.31 17.31 0 0 1-.27-2.89h-3.89a11.07 11.07 0 0 0 .71 3.92 9.17 9.17 0 0 0 1.95 3.12 8.59 8.59 0 0 0 6.19 2.6 9.57 9.57 0 0 0 3.82-.73 8.19 8.19 0 0 0 3-2.23 9.18 9.18 0 0 0 1.77-3.2 12.28 12.28 0 0 0 .59-3.49h-3.87a11.85 11.85 0 0 1-1.35 5.93zM186.22 25.88a4.17 4.17 0 0 1-3.71 2.27 4 4 0 0 1-2.4-.69 5.22 5.22 0 0 1-1.6-1.88 9.35 9.35 0 0 1-.93-2.73 18 18 0 0 1-.28-3h-3.88a10.73 10.73 0 0 0 .71 4 9.31 9.31 0 0 0 1.94 3.15 8.63 8.63 0 0 0 6.19 2.6 9.58 9.58 0 0 0 3.83-.73 8.19 8.19 0 0 0 3-2.23 9.16 9.16 0 0 0 1.76-3.2 12 12 0 0 0 .6-3.55h-3.87a11.83 11.83 0 0 1-1.36 5.99zM196.51 25.86a2 2 0 0 1-.26 1.09 1.37 1.37 0 0 1-.78.6 4.41 4.41 0 0 1-.78.14l-.89.08V29h9v-1.23a6.2 6.2 0 0 1-1-.13 5.71 5.71 0 0 1-.86-.28 1.47 1.47 0 0 1-.79-.65 2.28 2.28 0 0 1-.15-1.11v-4.39l1.48-1.38h-5zM205 24.48l3.14 4.52h5.58v-1.23a5 5 0 0 1-1.91-.41 4.92 4.92 0 0 1-1.49-1.45c-.58-.78-1.52-2.06-2.8-3.82-.59-.81-1.15-1.56-1.69-2.27h-4.25a97.74 97.74 0 0 1 3.42 4.66zM238.79 19.88a11.17 11.17 0 0 1-1.41 6.05 4.21 4.21 0 0 1-3.69 2.22 4.12 4.12 0 0 1-1.74-.33 4.87 4.87 0 0 1-1.27-.85 4.94 4.94 0 0 1-.9-1.15 5.29 5.29 0 0 1-.44-1.05v-5h-3.48V26.41c0 1.3-.07 2.41-.13 3.34l1.16.26 1.39-2.15A12.75 12.75 0 0 0 231 29.1a9.88 9.88 0 0 0 3 .47 8.07 8.07 0 0 0 6.09-2.83 9.91 9.91 0 0 0 2.63-7h-3.92c-.02.04-.01.09-.01.14zM246 23.42a8.89 8.89 0 0 0 1.62 3.15 7.66 7.66 0 0 0 2.76 2.14 9.19 9.19 0 0 0 3.91.78 7.81 7.81 0 0 0 4.48-1.31 9.49 9.49 0 0 0 3.11-3.52l-1.32-.81a7.57 7.57 0 0 1-2.33 2.82 5.16 5.16 0 0 1-2.87.78 5.93 5.93 0 0 1-2.82-.63 5.27 5.27 0 0 1-1.91-1.72 7.86 7.86 0 0 1-1.09-2.61 13.36 13.36 0 0 1-.32-2.79h-3.75a12.9 12.9 0 0 0 .53 3.72zM277.86 25.86a2.13 2.13 0 0 1-.25 1.1 1.39 1.39 0 0 1-.78.59 4.2 4.2 0 0 1-.86.15l-1 .07V29h9.09v-1.23a4.92 4.92 0 0 1-.92-.12 7.6 7.6 0 0 1-.78-.25 1.52 1.52 0 0 1-.78-.63 2.05 2.05 0 0 1-.24-1.06V19.6h-3.52zM266.37 25.86a2 2 0 0 1-.26 1.09 1.37 1.37 0 0 1-.78.6 4.41 4.41 0 0 1-.78.14l-.89.08V29h9v-1.23a6.7 6.7 0 0 1-1-.13 4.23 4.23 0 0 1-.85-.28 1.62 1.62 0 0 1-.78-.64 1.94 1.94 0 0 1-.25-1v-6h-3.49zM289.08 25.86a2.11 2.11 0 0 1-.25 1.1 1.39 1.39 0 0 1-.78.59 4 4 0 0 1-.79.15l-.89.07V29h8.92v-1.23a4.38 4.38 0 0 1-.88-.14 6.85 6.85 0 0 1-.8-.27 1.5 1.5 0 0 1-.79-.64 2.12 2.12 0 0 1-.25-1.09v-6.06h-3.49zM311.78 25.86a2.13 2.13 0 0 1-.26 1.1 1.34 1.34 0 0 1-.77.59 4.2 4.2 0 0 1-.86.15l-.94.07V29h9v-1.23a4.32 4.32 0 0 1-1.69-.37 1.5 1.5 0 0 1-.77-.63 2.17 2.17 0 0 1-.22-1.06V19.5h-3.52zM300.29 25.86A2.11 2.11 0 0 1 300 27a1.39 1.39 0 0 1-.78.59 4.08 4.08 0 0 1-.8.15l-.89.07V29h9.05v-1.23a7.09 7.09 0 0 1-.94-.13 3.94 3.94 0 0 1-.86-.28 1.67 1.67 0 0 1-.78-.64 1.86 1.86 0 0 1-.26-1v-6.18h-3.49zM333.7 25.43a8.36 8.36 0 0 1-1.65 1.44 4.36 4.36 0 0 1-2.48.66 4.5 4.5 0 0 1-2.42-.64 5.22 5.22 0 0 1-1.68-1.69 7.55 7.55 0 0 1-1-2.39 12.47 12.47 0 0 1-.3-2.85v-.48h-3.92v.24a11.92 11.92 0 0 0 .64 4 9.87 9.87 0 0 0 1.75 3.11 7.68 7.68 0 0 0 2.56 2 6.94 6.94 0 0 0 3 .7 6.67 6.67 0 0 0 2.94-.69 7.68 7.68 0 0 0 2.41-1.78h.15v1.72l.28.26 6.46-.41v-1.2c-.37 0-.78 0-1.23-.07a2.31 2.31 0 0 1-1-.28 2.12 2.12 0 0 1-.74-.78 2.25 2.25 0 0 1-.26-1.11v-5.75h-3.51zM362.6 20.28a608.9 608.9 0 0 0-1.75 4.15c-.5-1.29-1.18-3-2-5.05h-3.73l.66 1.58q1.44 3.5 3.22 7.94a22.08 22.08 0 0 1-1.88 3.74 7.61 7.61 0 0 1-2.24 2.64c-.13-.22-.3-.48-.51-.8a4.49 4.49 0 0 0-.6-.77 2.91 2.91 0 0 0-.77-.57 2.18 2.18 0 0 0-1-.23 1.64 1.64 0 0 0-1.28.59 2.28 2.28 0 0 0-.51 1.53 2 2 0 0 0 .83 1.59 3.43 3.43 0 0 0 2.29.7 4.06 4.06 0 0 0 1.46-.27 5.25 5.25 0 0 0 1.49-1.05 12.24 12.24 0 0 0 1.81-2.32 34.46 34.46 0 0 0 2.11-4.09c.6-1.34 1.48-3.42 2.63-6.26.51-1.26 1.07-2.59 1.64-4H363c-.15.33-.28.67-.4.95zM384.58 19.62a12.14 12.14 0 0 1-1.37 6.26 4.2 4.2 0 0 1-3.72 2.27 4 4 0 0 1-2.39-.69 5.24 5.24 0 0 1-1.61-1.88 10 10 0 0 1-.93-2.73 18.08 18.08 0 0 1-.29-3.32v-.2h-3.85v.5a10.88 10.88 0 0 0 .72 4.06 9.17 9.17 0 0 0 1.92 3.11 8.59 8.59 0 0 0 6.19 2.6 9.57 9.57 0 0 0 3.82-.73 8.19 8.19 0 0 0 3-2.23 9.18 9.18 0 0 0 1.77-3.2 12.24 12.24 0 0 0 .62-3.83 2.85 2.85 0 0 0 0-.29h-3.87c-.03.09-.01.2-.01.3zM409.09 27.08a2.32 2.32 0 0 1-.73-.77 2.07 2.07 0 0 1-.27-1.09v-6h-3.52v5.48a4.54 4.54 0 0 1-.59.81 5.51 5.51 0 0 1-.89.84 5.69 5.69 0 0 1-1.35.75 5 5 0 0 1-1.83.31 2.77 2.77 0 0 1-2.16-1 4.41 4.41 0 0 1-.9-3v-4.14h-3.52v3.94a7.35 7.35 0 0 0 1.28 4.66 4.51 4.51 0 0 0 3.73 1.6 7.21 7.21 0 0 0 2.23-.27 8.71 8.71 0 0 0 1.63-.76 7.5 7.5 0 0 0 1.29-1c.37-.36.71-.69 1-1h.11v2.34l.28.26 6-.41v-1.2c-.37 0-.71 0-1-.08a1.94 1.94 0 0 1-.79-.27zM418.31 19.2h1.72v2.74h-1.72zM419.23 24.29a2.58 2.58 0 0 0-2.57 2.56 2.39 2.39 0 0 0 .76 1.79 2.57 2.57 0 0 0 3.61 0 2.39 2.39 0 0 0 .76-1.79 2.58 2.58 0 0 0-2.56-2.56z"/></g><g id="part_1"><path class="cls-1" d="M170.74 19.62a16.52 16.52 0 0 0-.28-3 9.28 9.28 0 0 0-.84-2.65 5.18 5.18 0 0 0-1.62-1.84 3.94 3.94 0 0 0-2.38-.7 4.23 4.23 0 0 0-2.47.71 5.3 5.3 0 0 0-1.66 1.95 8.52 8.52 0 0 0-.85 2.61 17.35 17.35 0 0 0-.24 2.83v.43h10.27a.74.74 0 0 0 .07-.34zM335.62 14.62a4.44 4.44 0 0 0-.49-1 4.32 4.32 0 0 0-.84-1 4.38 4.38 0 0 0-1.27-.78 4.26 4.26 0 0 0-1.7-.31 3.85 3.85 0 0 0-2.07.58 5.42 5.42 0 0 0-1.67 1.67 8.69 8.69 0 0 0-1.1 2.67 14.89 14.89 0 0 0-.37 3.11h9.51zM240.41 17.05a7.94 7.94 0 0 0-.94-2.51 5.21 5.21 0 0 0-1.67-1.76 4.39 4.39 0 0 0-2.47-.67 5 5 0 0 0-2.3.51 6.32 6.32 0 0 0-1.77 1.4v5.73h9.44a13.81 13.81 0 0 0-.29-2.7zM55 14.62a4.44 4.44 0 0 0-.49-1 4.32 4.32 0 0 0-.84-1 4.38 4.38 0 0 0-1.27-.78 4.26 4.26 0 0 0-1.7-.31 3.85 3.85 0 0 0-2.07.58 5.42 5.42 0 0 0-1.67 1.67 8.69 8.69 0 0 0-1.1 2.67 15.35 15.35 0 0 0-.4 3.59v.33h9.52zM278.85 13.32a2.9 2.9 0 0 0-2.26-1.06 5.35 5.35 0 0 0-1.82.3 6.94 6.94 0 0 0-1.49.76 4.68 4.68 0 0 0-1 .94 8.67 8.67 0 0 0-.52.79v4.58h8v-3.27a4.51 4.51 0 0 0-.91-3.04zM81.93 20.28v-.1h-3.45c.7 1.7 1.27 3.12 1.7 4.24.56-1.33 1.14-2.71 1.75-4.14zM259.46 15.37a6.77 6.77 0 0 0-.58-2A3.74 3.74 0 0 0 257.7 12a3.22 3.22 0 0 0-1.93-.54 4 4 0 0 0-3.27 1.64 7.61 7.61 0 0 0-1.41 4.54h8.54a15.11 15.11 0 0 0-.17-2.27zM362.6 20.28c.12-.28.25-.62.38-.92h-4.17c.86 2.07 1.54 3.76 2 5.05.6-1.32 1.19-2.7 1.79-4.13zM312.77 13.32a2.9 2.9 0 0 0-2.27-1.06 5.3 5.3 0 0 0-1.82.3 6.48 6.48 0 0 0-1.46.76 4.05 4.05 0 0 0-1 .93c-.24.33-.42.6-.54.8v4.49h8v-3.18a4.51 4.51 0 0 0-.91-3.04zM22.87 15.86a15.58 15.58 0 0 0-.71-4.86 11.23 11.23 0 0 0-2.08-3.77 9.31 9.31 0 0 0-3.18-2.4A9.85 9.85 0 0 0 12.71 4H9.55v16.4h12.84a19.59 19.59 0 0 0 .48-4.54zM105.83 19.62a16.57 16.57 0 0 0-.29-3 9.28 9.28 0 0 0-.84-2.62 5.18 5.18 0 0 0-1.58-1.87 3.94 3.94 0 0 0-2.38-.7 4.23 4.23 0 0 0-2.47.71 5.3 5.3 0 0 0-1.66 1.95 8.8 8.8 0 0 0-.85 2.61 17.35 17.35 0 0 0-.24 2.83v.62h10.25c.04-.15.06-.35.06-.53zM191.43 19.62a16.52 16.52 0 0 0-.28-3 9.61 9.61 0 0 0-.84-2.65 5.28 5.28 0 0 0-1.58-1.87 4 4 0 0 0-2.39-.7 4.22 4.22 0 0 0-2.46.71 5.32 5.32 0 0 0-1.67 1.95 8.51 8.51 0 0 0-.84 2.61 17.35 17.35 0 0 0-.24 2.83v.37h10.28c.01-.08.02-.16.02-.25z"/><path class="cls-2" d="M205.32 19.83h.1z"/><path class="cls-1" d="M386.21 16.65a9.28 9.28 0 0 0-.84-2.65 5.18 5.18 0 0 0-1.58-1.87 3.94 3.94 0 0 0-2.38-.7 4.23 4.23 0 0 0-2.47.71 5.3 5.3 0 0 0-1.66 1.95 8.8 8.8 0 0 0-.85 2.61 17.22 17.22 0 0 0-.23 2.63h10.28a16.89 16.89 0 0 0-.27-2.68z"/><path class="cls-2" d="M26.13 9.52a11.6 11.6 0 0 0-3.67-4.37 14.17 14.17 0 0 0-4.05-2 15.26 15.26 0 0 0-4.72-.74H2.07v1.34a9 9 0 0 1 1.16.17 4.77 4.77 0 0 1 1.26.41 1.63 1.63 0 0 1 .85.8 3 3 0 0 1 .21 1.15v14.13h4V4H12.73a9.85 9.85 0 0 1 4.19.88A9.31 9.31 0 0 1 20.1 7.3a11.23 11.23 0 0 1 2.06 3.7 15.58 15.58 0 0 1 .71 4.84 19.59 19.59 0 0 1-.48 4.5h4.38a13.64 13.64 0 0 0 .69-4.48 14.18 14.18 0 0 0-1.33-6.34zM36.23 10.31l-6.52.41V12a7.82 7.82 0 0 1 1.24.19 3.58 3.58 0 0 1 1 .39 2.38 2.38 0 0 1 .75.83 2.13 2.13 0 0 1 .3 1.05v5.87h3.48v-9.76zM34.43 5.68a2.2 2.2 0 0 0 1.73-.8A2.72 2.72 0 0 0 36.87 3a2.35 2.35 0 0 0-.69-1.68 2.3 2.3 0 0 0-1.75-.7 2.16 2.16 0 0 0-1.66.77 2.56 2.56 0 0 0-.7 1.8 2.49 2.49 0 0 0 .7 1.73 2.21 2.21 0 0 0 1.66.76zM58.19 0l-7.57.41v1.16a17.34 17.34 0 0 1 1.92.24 3.73 3.73 0 0 1 1.46.52 2.2 2.2 0 0 1 .73 1A3.89 3.89 0 0 1 55 4.75v6.44a9 9 0 0 0-2.14-.84 9.88 9.88 0 0 0-2.59-.35 8.28 8.28 0 0 0-3.38.74 8.39 8.39 0 0 0-2.79 2 10 10 0 0 0-1.91 3.15 10.5 10.5 0 0 0-.69 3.8v.58h3.89v-.33a15.35 15.35 0 0 1 .4-3.59 8.69 8.69 0 0 1 1.1-2.67A5.42 5.42 0 0 1 48.58 12a3.85 3.85 0 0 1 2.07-.58 4.26 4.26 0 0 1 1.7.31 4.38 4.38 0 0 1 1.27.78 4.32 4.32 0 0 1 .84 1 4.44 4.44 0 0 1 .49 1v5.65h3.52V.28zM79.83 18.84q-1.45-3.49-2.17-5.35c-.07-.19-.14-.37-.19-.54a1.38 1.38 0 0 1-.09-.38c0-.18.27-.35.79-.49a6.13 6.13 0 0 1 1.35-.24v-1.31h-8.44v1.24a4.93 4.93 0 0 1 1.69.61A2.7 2.7 0 0 1 74 13.72c.94 2.23 1.83 4.38 2.7 6.48h3.72c-.21-.44-.42-.89-.59-1.36zM89.41 12.34a4.8 4.8 0 0 1 1.48-.65v-1.16H84v1.2a4.83 4.83 0 0 1 1.62.52c.57.28.85.58.85.9a3.13 3.13 0 0 1-.24 1.08l-.38 1c-.73 1.91-1.4 3.56-2 5h1.49c.82-2 1.7-4.05 2.66-6.28a3.42 3.42 0 0 1 1.41-1.61zM107.18 12.62a9.25 9.25 0 0 0-13 .14 10.09 10.09 0 0 0-2.52 7.08v.32h3.88v-.62a17.35 17.35 0 0 1 .24-2.83 8.8 8.8 0 0 1 .85-2.61 5.3 5.3 0 0 1 1.66-1.95 4.23 4.23 0 0 1 2.47-.71 3.94 3.94 0 0 1 2.38.7A5.18 5.18 0 0 1 104.7 14a9.28 9.28 0 0 1 .84 2.65 16.57 16.57 0 0 1 .29 3v.5h3.86v-.53a9.6 9.6 0 0 0-2.51-7zM118.1 10.57l-.28-.26-6.17.45V12c.38 0 .74.08 1.08.14a2.22 2.22 0 0 1 1.59 1.13 2.28 2.28 0 0 1 .26 1.13v5.7h3.52zM129.06 10.31l-6.73.45V12l1.49.09a2.11 2.11 0 0 1 1 .27 2.45 2.45 0 0 1 .73.81 2.32 2.32 0 0 1 .26 1.1v5.8h3.52v-9.5zM149.34 0l-7 .41v1.2a11.46 11.46 0 0 1 1.44.23 3.64 3.64 0 0 1 1.23.41 2.28 2.28 0 0 1 .76.93 2.71 2.71 0 0 1 .29 1.26V20h3.49V.28zM170.18 12.62a9.25 9.25 0 0 0-13 .14 10.09 10.09 0 0 0-2.52 7.08v.14h3.89v-.43a17.35 17.35 0 0 1 .24-2.83 8.8 8.8 0 0 1 .85-2.61 5.3 5.3 0 0 1 1.66-1.95 4.23 4.23 0 0 1 2.47-.71 3.94 3.94 0 0 1 2.38.7A5.18 5.18 0 0 1 167.7 14a9.28 9.28 0 0 1 .84 2.65 16.57 16.57 0 0 1 .29 3v.31h3.87v-.34a9.6 9.6 0 0 0-2.52-7zM190.87 12.62a9.25 9.25 0 0 0-13 .14 10.09 10.09 0 0 0-2.52 7.08v.08h3.89v-.37a17.35 17.35 0 0 1 .24-2.83 8.52 8.52 0 0 1 .85-2.61 5.21 5.21 0 0 1 1.67-1.97 4.23 4.23 0 0 1 2.47-.71 4 4 0 0 1 2.38.7 5.18 5.18 0 0 1 1.54 1.87 9.61 9.61 0 0 1 .84 2.65 16.52 16.52 0 0 1 .28 3v.25h3.87v-.28a9.6 9.6 0 0 0-2.51-7zM208.29 15.35a17.44 17.44 0 0 1 1.27-1.22 11.77 11.77 0 0 1 1.85-1.27 13.67 13.67 0 0 1 2.78-1.17v-1.16h-8.13v1.2a9.88 9.88 0 0 1 1.57.34q.81.24.81.75a1 1 0 0 1-.17.44 3.85 3.85 0 0 1-.33.44c-.78.88-1.73 1.87-2.86 3l-3.16 3.14V.28l-.26-.28-6.84.41v1.2l1.34.13a2.56 2.56 0 0 1 1.22.4 2.18 2.18 0 0 1 .76.92 3 3 0 0 1 .29 1.31v15.48H207.74c-.62-.82-1.22-1.59-1.77-2.27 1.03-.94 1.77-1.67 2.32-2.23zM236.64 10a6.61 6.61 0 0 0-2.71.61 8.17 8.17 0 0 0-2.54 1.86h-.13V.28L231 0l-6.78.41v1.2c.33 0 .78.08 1.34.16a2.87 2.87 0 0 1 1.19.37 2 2 0 0 1 .74.92 3.09 3.09 0 0 1 .29 1.27v15.43h3.48V14a6.32 6.32 0 0 1 1.77-1.4 5 5 0 0 1 2.3-.51 4.39 4.39 0 0 1 2.47.67 5.21 5.21 0 0 1 1.67 1.76 7.94 7.94 0 0 1 .94 2.51 13.81 13.81 0 0 1 .29 2.68h3.92a10.5 10.5 0 0 0-2.28-7 7.16 7.16 0 0 0-5.7-2.71zM263.33 19.19V18a10.54 10.54 0 0 0-.43-3.09 7 7 0 0 0-1.28-2.47 6.22 6.22 0 0 0-2.34-1.75 8.64 8.64 0 0 0-3.47-.63 7.7 7.7 0 0 0-3.55.81 8.1 8.1 0 0 0-2.65 2.13 9.8 9.8 0 0 0-1.68 3.12 11.2 11.2 0 0 0-.57 3.53v.09h3.74v-.51zm-10.83-6.12a4 4 0 0 1 3.27-1.64 3.22 3.22 0 0 1 1.93.54 3.74 3.74 0 0 1 1.18 1.4 6.77 6.77 0 0 1 .58 2 15.11 15.11 0 0 1 .17 2.24h-8.54a7.61 7.61 0 0 1 1.41-4.54zM282 11.59a4.74 4.74 0 0 0-3.84-1.59 7.3 7.3 0 0 0-2.17.3 6.82 6.82 0 0 0-1.68.74 9 9 0 0 0-1.33 1c-.34.32-.72.68-1.13 1.09h-.07V.28l-.27-.28-6.84.41v1.2c.35 0 .81.07 1.38.14a2.71 2.71 0 0 1 1.19.35 2.2 2.2 0 0 1 .76 1 3.09 3.09 0 0 1 .29 1.27v15.28h3.49v-4.6a8.67 8.67 0 0 1 .52-.79 4.68 4.68 0 0 1 1-.94 6.94 6.94 0 0 1 1.49-.76 5.35 5.35 0 0 1 1.82-.3 2.9 2.9 0 0 1 2.26 1.06 4.51 4.51 0 0 1 .93 3v3.25h3.52V16.1a6.76 6.76 0 0 0-1.32-4.51zM294.23 10.31l-6.53.41V12a7.66 7.66 0 0 1 1.24.19 3.47 3.47 0 0 1 1 .39 2.32 2.32 0 0 1 .76.83 2.23 2.23 0 0 1 .27 1.09v5.12h3.49v-9zM292.43 5.68a2.23 2.23 0 0 0 1.73-.8 2.71 2.71 0 0 0 .7-1.86 2.34 2.34 0 0 0-.68-1.68 2.31 2.31 0 0 0-1.75-.72 2.16 2.16 0 0 0-1.66.77 2.56 2.56 0 0 0-.7 1.8 2.49 2.49 0 0 0 .7 1.73 2.21 2.21 0 0 0 1.66.76zM315.93 11.68A4.67 4.67 0 0 0 312 10a7.11 7.11 0 0 0-2.15.3 6.28 6.28 0 0 0-1.65.74 10.5 10.5 0 0 0-1.28 1c-.45.41-.82.77-1.12 1.07h-.1v-2.6l-.26-.26-6.14.41V12a6.53 6.53 0 0 1 1 .14 2.39 2.39 0 0 1 .85.32 2.45 2.45 0 0 1 .76.87 2.58 2.58 0 0 1 .27 1.17v5.09h3.48v-4.54c.12-.2.3-.47.54-.8a4.05 4.05 0 0 1 1-.93 6.48 6.48 0 0 1 1.46-.76 5.3 5.3 0 0 1 1.82-.3 2.9 2.9 0 0 1 2.27 1.06 4.51 4.51 0 0 1 .93 3v3.15h3.52V16.1a7 7 0 0 0-1.27-4.42zM338.86 0l-7.57.41v1.16a17.34 17.34 0 0 1 1.92.24 3.67 3.67 0 0 1 1.42.52 2.2 2.2 0 0 1 .73 1 3.89 3.89 0 0 1 .26 1.44v6.44a9 9 0 0 0-2.14-.84 9.88 9.88 0 0 0-2.54-.32 8.28 8.28 0 0 0-3.38.74 8.39 8.39 0 0 0-2.79 2 10.23 10.23 0 0 0-2.58 6.71h3.92a14.89 14.89 0 0 1 .37-3.11 8.69 8.69 0 0 1 1.1-2.67 5.42 5.42 0 0 1 1.67-1.72 3.85 3.85 0 0 1 2.07-.58 4.26 4.26 0 0 1 1.7.31 4.38 4.38 0 0 1 1.27.78 4.32 4.32 0 0 1 .84 1 4.44 4.44 0 0 1 .49 1v4.83h3.52V.28zM360.5 18.84q-1.46-3.49-2.16-5.35a5.21 5.21 0 0 1-.2-.54 1.38 1.38 0 0 1-.09-.38c0-.18.27-.35.79-.49a6.13 6.13 0 0 1 1.35-.24v-1.31h-8.44v1.24a4.93 4.93 0 0 1 1.69.61 2.7 2.7 0 0 1 1.2 1.34c.82 1.94 1.6 3.82 2.36 5.67h3.73zM370.08 12.34a4.8 4.8 0 0 1 1.48-.65v-1.16h-6.86v1.2a4.83 4.83 0 0 1 1.62.52c.57.28.85.58.85.9a3.13 3.13 0 0 1-.24 1.08l-.38 1c-.6 1.57-1.14 2.92-1.66 4.15h1.5c.73-1.73 1.5-3.54 2.32-5.46a3.42 3.42 0 0 1 1.37-1.58zM381.45 10a8.55 8.55 0 0 0-6.62 2.75 10 10 0 0 0-2.48 6.58h3.85a17.22 17.22 0 0 1 .23-2.63 8.8 8.8 0 0 1 .85-2.61 5.3 5.3 0 0 1 1.66-1.95 4.23 4.23 0 0 1 2.47-.71 3.94 3.94 0 0 1 2.38.7 5.18 5.18 0 0 1 1.58 1.87 9.28 9.28 0 0 1 .84 2.65 16.89 16.89 0 0 1 .27 2.65h3.87a9.47 9.47 0 0 0-2.5-6.67 8.52 8.52 0 0 0-6.4-2.63zM410 10.57l-.28-.26-6.73.45V12l1.49.09a2.11 2.11 0 0 1 1 .27 2.45 2.45 0 0 1 .73.81 2.32 2.32 0 0 1 .26 1.1v5H410zM398.77 10.57l-.28-.26-6.17.45V12c.38 0 .74.08 1.08.14a2.22 2.22 0 0 1 1.6 1.12 2.28 2.28 0 0 1 .26 1.13v4.89h3.52zM422 17.8a10 10 0 0 0 6-2.64 7.64 7.64 0 0 0 2.21-5.67 8.53 8.53 0 0 0-.49-2.95 6.93 6.93 0 0 0-1.53-2.45 7.18 7.18 0 0 0-2.53-1.68 9.25 9.25 0 0 0-3.52-.63 8.21 8.21 0 0 0-2.67.43 6.68 6.68 0 0 0-2 1 4.89 4.89 0 0 0-1.29 1.4 3 3 0 0 0 0 3.08 1.57 1.57 0 0 0 1.44.69 2.43 2.43 0 0 0 1.74-.57 1.71 1.71 0 0 0 .6-1.26 7.33 7.33 0 0 0-.16-1.3c-.1-.56-.19-1-.25-1.29a4.31 4.31 0 0 1 .95-.48 4.08 4.08 0 0 1 1.5-.22 4.16 4.16 0 0 1 3.47 1.5 6.78 6.78 0 0 1 1.19 4.32 5.92 5.92 0 0 1-.53 2.75 5 5 0 0 1-1.49 1.68 6.17 6.17 0 0 1-2.08 1 14.62 14.62 0 0 1-2.34.38v4.31H422z"/></g></g></g></g></svg>
